<?xml version="1.0" encoding="iso-8859-1"?>
<!-- Uploaded to: SVG Repo, www.svgrepo.com, Generator: SVG Repo Mixer Tools -->
<svg height="800px" width="800px" version="1.1" id="Layer_1" xmlns="http://www.w3.org/2000/svg" xmlns:xlink="http://www.w3.org/1999/xlink" 
	 viewBox="0 0 512.002 512.002" xml:space="preserve">
<g>
	<path style="fill:#F4D853;" d="M308.991,282.127l25.908,25.907l13.213,13.213l13.199,13.2
		c47.59-53.843,71.994-119.128,84.229-166.125c14.297-54.92,15.538-96.569,15.584-98.314c0.133-5.113-1.839-10.059-5.456-13.675
		h-0.001c-3.615-3.616-8.553-5.586-13.674-5.455c-0.546,0.015-4.988,0.145-12.514,0.755c-1.506,0.122-3.134,0.264-4.88,0.426
		c-0.873,0.082-1.775,0.169-2.705,0.261c-17.677,1.767-45.607,5.652-78.215,14.141c-46.998,12.234-112.282,36.639-166.126,84.227
		l0,0l0,0l13.2,13.2l13.22,13.22l25.901,25.901l13.187,13.187l13.185,13.185l13.19,13.19l13.182,13.182l13.187,13.185
		L308.991,282.127"/>
	<path style="fill:#F4D853;" d="M282.619,308.499l-13.185-13.187l-13.187-13.185l-13.182-13.182l-13.19-13.19l-13.185-13.185
		l-13.187-13.187l-25.901-25.901l-13.22-13.22l-13.2-13.2c-4.462,5.047-8.719,10.196-12.783,15.421
		c-1.354,1.742-2.687,3.491-3.998,5.249c-7.868,10.545-14.969,21.361-21.377,32.253c-6.407,10.892-12.121,21.859-17.213,32.706
		c-1.697,3.615-3.326,7.218-4.887,10.8c-3.124,7.163-5.982,14.245-8.597,21.184c-6.536,17.351-11.548,33.823-15.371,48.509
		c-2.68,10.297-4.902,20.129-6.743,29.317c-0.614,3.063-1.185,6.054-1.717,8.969c-0.798,4.371-1.507,8.566-2.137,12.564
		c-4.412,27.988-4.957,46.318-4.987,47.464c-0.133,5.113,1.839,10.059,5.456,13.675c3.501,3.502,8.247,5.463,13.187,5.463
		c0.163,0,0.326-0.003,0.489-0.006c1.745-0.046,43.394-1.285,98.314-15.582c46.997-12.234,112.279-36.639,166.124-84.229
		l-13.199-13.2l-13.222-13.219L282.619,308.499"/>
	<path style="fill:#F4D853;" d="M455.668,56.333L455.668,56.333c-3.616-3.618-8.555-5.586-13.675-5.456
		c-1.745,0.046-43.394,1.287-98.314,15.584c-46.998,12.234-112.282,36.639-166.126,84.227l13.2,13.2l13.22,13.22l25.901,25.901
		l13.187-13.185c10.565-10.567,24.614-16.387,39.558-16.387c0.934,0,1.864,0.022,2.791,0.068c6.485,0.316,12.768,1.734,18.629,4.163
		c0.26,0.107,0.513,0.231,0.772,0.342c0.574,0.247,1.15,0.492,1.714,0.76c0.31,0.147,0.609,0.31,0.916,0.461
		c0.506,0.251,1.016,0.496,1.515,0.763c0.191,0.103,0.379,0.218,0.571,0.323c0.604,0.333,1.21,0.666,1.801,1.022
		c0.266,0.159,0.525,0.336,0.787,0.5c0.51,0.317,1.023,0.63,1.524,0.966c0.04,0.026,0.078,0.056,0.118,0.083
		c2.991,2.013,5.812,4.328,8.418,6.935c0,0,0,0.001,0.001,0.001c21.811,21.81,21.811,57.302,0,79.115l-13.187,13.187l25.908,25.907
		l13.213,13.213l13.199,13.2c47.59-53.843,71.994-119.128,84.229-166.125c14.297-54.92,15.538-96.569,15.584-98.314
		C461.258,64.895,459.286,59.951,455.668,56.333z"/>
	<path style="fill:#F4D853;" d="M308.518,334.399l-25.9-25.901l-13.185,13.185c-10.565,10.567-24.614,16.387-39.558,16.387
		c-5.604,0-11.082-0.818-16.297-2.398c-3.451-1.046-6.787-2.427-9.969-4.122c-4.832-2.577-9.309-5.883-13.291-9.866l-0.001-0.001
		c-10.566-10.564-16.385-24.613-16.385-39.556c0-14.943,5.821-28.993,16.387-39.559l13.184-13.185l-25.901-25.901l-13.22-13.22
		l-13.2-13.2c-47.589,53.843-71.992,119.128-84.226,166.124c-14.297,54.92-15.538,96.569-15.584,98.314
		c-0.133,5.113,1.839,10.059,5.456,13.675c3.501,3.502,8.247,5.463,13.187,5.463c0.163,0,0.326-0.003,0.489-0.006
		c1.745-0.046,43.394-1.285,98.314-15.582c46.997-12.234,112.279-36.639,166.124-84.229l-13.199-13.2L308.518,334.399z"/>
</g>
<path style="fill:#FF6243;" d="M322.179,189.825c-2.607-2.607-5.427-4.923-8.419-6.936c-0.039-0.026-0.078-0.056-0.118-0.083
	c-0.5-0.336-1.014-0.648-1.524-0.966c-0.262-0.164-0.521-0.339-0.787-0.5c-0.593-0.356-1.197-0.689-1.801-1.022
	c-0.191-0.106-0.379-0.22-0.571-0.323c-0.499-0.267-1.009-0.512-1.515-0.763c-0.307-0.152-0.607-0.315-0.916-0.461
	c-0.564-0.267-1.14-0.512-1.714-0.76c-0.259-0.112-0.512-0.235-0.772-0.342c-5.863-2.429-12.146-3.846-18.629-4.163
	c-0.927-0.046-1.857-0.068-2.791-0.068c-14.943,0-28.993,5.819-39.558,16.387l-13.187,13.187l13.187,13.187l13.185,13.185
	l26.372,26.372l13.187,13.185l13.185,13.187l13.187-13.187C343.99,247.127,343.99,211.636,322.179,189.825z"/>
<path id="SVGCleanerId_0" style="fill:#FF6243;" d="M173.931,282.125c0,14.945,5.819,28.993,16.385,39.556l0.001,0.001
	c3.982,3.983,8.46,7.289,13.291,9.866c3.183,1.696,6.517,3.077,9.969,4.122c5.215,1.58,10.693,2.398,16.297,2.398
	c14.943,0,28.993-5.819,39.558-16.387l13.185-13.185l-13.185-13.187l-13.185-13.187l-26.372-26.372l-13.187-13.185l-13.187-13.187
	l-13.184,13.185C179.751,253.134,173.931,267.182,173.931,282.125z"/>
<path style="fill:#77757F;" d="M374.933,374.441c3.353-3.231,7.904-5.228,12.928-5.228h8.216l-34.768-34.766l-13.199-13.2
	l-13.213-13.213l-25.908-25.907l-13.185-13.187l-13.187-13.185l-26.372-26.372l-13.185-13.185l-13.187-13.187l-25.901-25.901
	l-13.22-13.22l-13.2-13.2l-34.766-34.766v8.216c0,5.024-1.995,9.575-5.228,12.928c-3.391,3.521-8.145,5.72-13.42,5.72h-7.23
	l34.273,34.274l13.2,13.2l13.22,13.22l25.901,25.901l13.187,13.187l13.187,13.185l26.372,26.372l13.185,13.187l13.185,13.187
	l25.9,25.901l13.222,13.219l13.199,13.2l34.274,34.274v-7.23C369.214,382.586,371.412,377.832,374.933,374.441z"/>
<g>
	<path style="fill:#EE8700;" d="M137.559,137.067c3.232-3.353,5.228-7.904,5.228-12.928v-8.216l0.001-44.528
		c0-4.945-1.964-9.688-5.463-13.185L84.581,5.462c-7.283-7.281-19.091-7.281-26.372,0L5.463,58.208
		c-7.283,7.281-7.283,19.089,0,26.372l52.746,52.746c3.497,3.497,8.24,5.463,13.185,5.463h45.513h7.23
		C129.413,142.787,134.166,140.587,137.559,137.067z"/>
	<path style="fill:#EE8700;" d="M453.792,374.676c-3.497-3.498-8.24-5.463-13.185-5.463H396.08h-8.216
		c-5.024,0-9.575,1.997-12.928,5.228c-3.521,3.391-5.72,8.146-5.72,13.42v7.23v45.515c0,4.945,1.964,9.688,5.463,13.185
		l52.744,52.744c3.641,3.643,8.414,5.461,13.185,5.461c4.771,0,9.545-1.821,13.185-5.46l52.747-52.744
		c3.498-3.498,5.461-8.241,5.461-13.187c0-4.945-1.964-9.69-5.461-13.187L453.792,374.676z"/>
</g>
<path style="fill:#F1CB30;" d="M203.973,177.109l25.901,25.901l13.187-13.187c10.565-10.567,24.614-16.387,39.558-16.387
	c0.934,0,1.864,0.022,2.791,0.068c6.485,0.316,12.768,1.734,18.629,4.163c0.26,0.107,0.513,0.231,0.772,0.342
	c0.574,0.247,1.15,0.492,1.714,0.76c0.31,0.147,0.609,0.31,0.916,0.461c0.506,0.251,1.016,0.496,1.515,0.763
	c0.191,0.103,0.379,0.218,0.571,0.323c0.604,0.333,1.21,0.666,1.801,1.022c0.266,0.159,0.525,0.336,0.787,0.5
	c0.51,0.317,1.023,0.63,1.524,0.966c0.04,0.026,0.078,0.056,0.118,0.083c2.991,2.013,5.812,4.328,8.418,6.935L455.667,56.333
	c-3.615-3.616-8.553-5.586-13.674-5.455c-1.745,0.046-43.394,1.287-98.314,15.584C296.681,78.696,231.397,103.1,177.553,150.69
	l13.2,13.2L203.973,177.109z"/>
<g>
	<path style="fill:#F4D853;" d="M308.958,179.996c0.191,0.103,0.379,0.218,0.571,0.323
		C309.336,180.213,309.15,180.098,308.958,179.996z"/>
	<path style="fill:#F4D853;" d="M304.04,177.669c0.26,0.107,0.513,0.231,0.772,0.342C304.554,177.899,304.3,177.776,304.04,177.669z
		"/>
	<path style="fill:#F4D853;" d="M313.64,182.806c0.04,0.026,0.078,0.056,0.118,0.083C313.72,182.863,313.681,182.833,313.64,182.806
		z"/>
	<path style="fill:#F4D853;" d="M311.33,181.341c0.266,0.159,0.525,0.336,0.787,0.5C311.855,181.675,311.597,181.5,311.33,181.341z"
		/>
	<path style="fill:#F4D853;" d="M306.527,178.77c0.31,0.147,0.609,0.31,0.916,0.461C307.136,179.08,306.836,178.917,306.527,178.77z
		"/>
</g>
<path id="SVGCleanerId_1" style="fill:#F1CB30;" d="M190.317,321.684c3.982,3.982,8.46,7.289,13.291,9.866
	C198.777,328.973,194.299,325.666,190.317,321.684L190.317,321.684z"/>
<path id="SVGCleanerId_2" style="fill:#F1CB30;" d="M190.315,321.683c-10.566-10.564-16.385-24.613-16.385-39.556
	c0-14.945,5.821-28.993,16.387-39.559l13.184-13.185L177.6,203.481l-13.22-13.22l-13.2-13.2
	c-47.589,53.843-71.992,119.128-84.226,166.124c-14.297,54.92-15.538,96.569-15.584,98.314c-0.133,5.113,1.839,10.059,5.456,13.675
	l133.491-133.489L190.315,321.683z"/>
<polygon style="fill:#F4D853;" points="190.315,321.683 190.317,321.684 190.317,321.683 "/>
<path id="SVGCleanerId_3" style="fill:#FF0C38;" d="M322.179,189.825c-2.607-2.607-5.427-4.922-8.419-6.936
	c-0.039-0.026-0.078-0.056-0.118-0.083c-0.5-0.336-1.013-0.648-1.524-0.966c-0.262-0.164-0.521-0.339-0.787-0.5
	c-0.593-0.356-1.197-0.689-1.801-1.022c-0.191-0.106-0.379-0.22-0.571-0.323c-0.499-0.267-1.009-0.512-1.515-0.763
	c-0.307-0.152-0.607-0.315-0.916-0.461c-0.564-0.267-1.14-0.512-1.714-0.76c-0.259-0.112-0.512-0.235-0.772-0.342
	c-5.863-2.429-12.146-3.846-18.629-4.163c-0.927-0.046-1.857-0.068-2.791-0.068c-14.945,0-28.993,5.819-39.558,16.387
	l-13.187,13.185l13.187,13.187l13.185,13.185l13.19,13.19l52.744-52.744C322.18,189.827,322.179,189.826,322.179,189.825z"/>
<path id="SVGCleanerId_4" style="fill:#FF0C38;" d="M216.689,242.569l-13.187-13.187l-13.184,13.185
	c-10.566,10.566-16.387,24.614-16.387,39.559s5.819,28.993,16.385,39.556h0.001c0.001,0.001,0.004,0.003,0.005,0.004l52.743-52.743
	l-13.19-13.19L216.689,242.569z"/>
<g>
	<path id="SVGCleanerId_0_1_" style="fill:#FF6243;" d="M173.931,282.125c0,14.945,5.819,28.993,16.385,39.556l0.001,0.001
		c3.982,3.983,8.46,7.289,13.291,9.866c3.183,1.696,6.517,3.077,9.969,4.122c5.215,1.58,10.693,2.398,16.297,2.398
		c14.943,0,28.993-5.819,39.558-16.387l13.185-13.185l-13.185-13.187l-13.185-13.187l-26.372-26.372l-13.187-13.185l-13.187-13.187
		l-13.184,13.185C179.751,253.134,173.931,267.182,173.931,282.125z"/>
</g>
<g>
	<path id="SVGCleanerId_1_1_" style="fill:#F1CB30;" d="M190.317,321.684c3.982,3.982,8.46,7.289,13.291,9.866
		C198.777,328.973,194.299,325.666,190.317,321.684L190.317,321.684z"/>
</g>
<g>
	<path id="SVGCleanerId_2_1_" style="fill:#F1CB30;" d="M190.315,321.683c-10.566-10.564-16.385-24.613-16.385-39.556
		c0-14.945,5.821-28.993,16.387-39.559l13.184-13.185L177.6,203.481l-13.22-13.22l-13.2-13.2
		c-47.589,53.843-71.992,119.128-84.226,166.124c-14.297,54.92-15.538,96.569-15.584,98.314c-0.133,5.113,1.839,10.059,5.456,13.675
		l133.491-133.489L190.315,321.683z"/>
</g>
<polygon style="fill:#F4D853;" points="190.315,321.683 190.317,321.684 190.317,321.683 "/>
<g>
	<path id="SVGCleanerId_3_1_" style="fill:#FF0C38;" d="M322.179,189.825c-2.607-2.607-5.427-4.922-8.419-6.936
		c-0.039-0.026-0.078-0.056-0.118-0.083c-0.5-0.336-1.013-0.648-1.524-0.966c-0.262-0.164-0.521-0.339-0.787-0.5
		c-0.593-0.356-1.197-0.689-1.801-1.022c-0.191-0.106-0.379-0.22-0.571-0.323c-0.499-0.267-1.009-0.512-1.515-0.763
		c-0.307-0.152-0.607-0.315-0.916-0.461c-0.564-0.267-1.14-0.512-1.714-0.76c-0.259-0.112-0.512-0.235-0.772-0.342
		c-5.863-2.429-12.146-3.846-18.629-4.163c-0.927-0.046-1.857-0.068-2.791-0.068c-14.945,0-28.993,5.819-39.558,16.387
		l-13.187,13.185l13.187,13.187l13.185,13.185l13.19,13.19l52.744-52.744C322.18,189.827,322.179,189.826,322.179,189.825z"/>
</g>
<g>
	<path id="SVGCleanerId_4_1_" style="fill:#FF0C38;" d="M216.689,242.569l-13.187-13.187l-13.184,13.185
		c-10.566,10.566-16.387,24.614-16.387,39.559s5.819,28.993,16.385,39.556h0.001c0.001,0.001,0.004,0.003,0.005,0.004l52.743-52.743
		l-13.19-13.19L216.689,242.569z"/>
</g>
<g>
	<path style="fill:#FFB655;" d="M5.463,84.58l52.746,52.746c3.497,3.497,8.24,5.463,13.185,5.463h45.513h7.23
		c5.152,0,9.796-2.107,13.171-5.485L31.839,31.832L5.463,58.208C-1.821,65.49-1.821,77.298,5.463,84.58z"/>
	<path style="fill:#FFB655;" d="M369.214,395.093v45.515c0,4.947,1.964,9.688,5.463,13.185l52.744,52.744
		c3.641,3.643,8.414,5.463,13.185,5.463c4.771,0,9.545-1.821,13.187-5.461l26.377-26.376L374.698,374.691
		c-3.377,3.374-5.484,8.019-5.484,13.171V395.093z"/>
</g>
</svg>